<svg version="1" xmlns="http://www.w3.org/2000/svg" width="682.667" height="682.667" viewBox="0 0 512.000000 512.000000"><path d="M450.5 24.1c-5.5 1-17.6 2.9-27 4.4-22 3.4-21.2 3.3-27 4-2.7.3-6.6.8-8.5 1-1.9.3-5.7.7-8.5 1-2.7.3-6.1.8-7.5 1-1.4.2-5.9.6-10 1-7 .5-9.5.8-21 1.9-2.5.3-9 .8-14.5 1.2-5.5.3-11.1.8-12.5 1-4.8.6-52.7 1.8-70.5 1.7-22.8 0-60.6-1.5-71-2.7-2.7-.3-8.6-.8-13-1.1-4.4-.3-9.1-.8-10.5-1-1.4-.2-6-.6-10.2-1-4.3-.3-8.8-.8-10-1-1.3-.2-6.6-.9-11.8-1.5-5.2-.7-10.4-1.4-11.5-1.6-1-.2-3.7-.6-6-.9-2.2-.4-12-2-21.8-3.6-12.2-2.1-20.3-2.9-26-2.7l-8.2.3.2 17.5c.3 24.2 1.2 55.3 1.7 55.7.2.3 3.5 1.1 7.3 1.9 27.9 5.7 45.6 31.3 40.8 58.9-2.9 16.6-13.8 30-30.5 37.4-3 1.4-5.8 2.8-6.3 3.1-.4.3-.3 3.1.3 6.1.6 3 1.3 6.5 1.5 7.9.3 1.4.7 3.4.9 4.5.3 1.1 1.2 5.3 2 9.3 3.5 16.3 13.5 51.8 16.5 58.7.5 1.1 3.3 8.1 6.1 15.5 4.9 12.6 17.1 38.4 23.6 49.6 9.3 16.3 28 42.5 40.3 56.7 25.7 29.7 65.9 62.1 102.8 82.8l3.3 1.9 7.8-4.7c14.2-8.5 36.6-24.1 50-34.9 31.3-24.9 63.9-62.1 82.3-93.7 1.9-3.2 4.6-8 6.1-10.5 9.2-15.7 24.3-49.7 31.1-70.2 2.7-8.4 5.7-17.7 6.3-20 4.5-17 9.4-36.3 9.8-39.2.3-2.1 1.1-5.9 1.7-8.5.6-2.7 1.3-6.4 1.5-8.3l.5-3.5-8.3-3.9c-6.4-3-9.8-5.4-14.8-10.6-3.6-3.7-7.3-8.5-8.4-10.6-1-2.2-2.3-4.7-2.8-5.8-1.9-3.6-3.5-14.2-3.2-21.2.5-12.5 5.8-24.1 15.1-33.1 8.2-7.8 16.7-11.9 31.6-14.8 2.6-.5 2.7-.8 2.8-7.3 0-3.7.2-11 .4-16.2.3-9.8.7-49.2.6-52.3-.1-2-.4-2-13.6.4z"/></svg>