<svg version="1" xmlns="http://www.w3.org/2000/svg" width="682.667" height="682.667" viewBox="0 0 512.000000 512.000000"><path d="M453.5 23.6c-11.1 2.2-50.5 8.1-69 10.3-54.5 6.5-93.2 8.5-152 7.8-58-.7-94.5-3.8-147.8-12.7-15.3-2.6-27-4-32.7-4h-8.8l.4 7.2c.2 4 .6 20.5.8 36.7.3 16.1.7 29.5.9 29.8.3.2 3.6 1.1 7.4 1.9 15.1 3.1 28.5 12.7 35.2 25.3 4.5 8.4 6.1 15 6.1 24.6 0 20.2-9.8 35.8-28.4 45.1-5 2.5-9.2 4.7-9.4 4.9-.6.6 5.9 31 9.8 46.3 8.2 31.6 18.2 58.7 31.4 85.2 32.9 65.8 79 114.4 147.8 155.8l8.7 5.2 9.3-5.6c93.5-56.7 150.5-134.6 178.7-244.4 4.1-16.3 9.7-42.8 9-43.3-.2-.2-4-2-8.4-4.2-28.2-13.6-37.6-47.6-20.4-73.5 7.3-10.8 19.2-18.5 33.3-21.5 3.8-.7 7-1.6 7.3-1.8.2-.3.7-17.7 1-38.6.6-37 .6-38.1-1.3-38-1 .1-5 .8-8.9 1.5zM101 50.5c52.5 7.5 109 11.1 159.8 10.3 14.4-.2 26.2-.2 26.2.1 0 .3-20.2 27.4-45 60.2-24.7 32.9-45 60-45 60.3 0 .4 11.3.6 25 .6 13.8 0 25 .3 25 .7 0 .5-20.3 36.1-45 79.2-24.8 43.1-44.9 78.5-44.8 78.6.2.1 21-21.1 46.3-47.1l46-47.3h19.9l19.8-.1-1.8 2.7c-7.1 10.8-84.6 130.2-88.1 135.8-3.7 5.9 9.3-6.8 86-84l90.5-91-44.4-.3c-24.4-.1-44.4-.6-44.4-1 .1-.4 13.3-14.2 29.5-30.7l29.3-30-27.7-.5-27.7-.5 35.9-43.5c19.7-23.9 36.6-44.5 37.6-45.8 1.5-2.1 3.2-2.5 18.1-4.3 24.7-2.9 49.8-6.4 60.3-8.5l2.7-.6v39.9l-6.9 2.7c-18 7.1-32.2 21.9-39.4 41-3.9 10.4-4.9 27-2.3 38.1 3.7 15.6 14.8 31.9 28 41 3.1 2.1 5.6 4.3 5.6 4.9 0 .6-2.2 10.1-4.9 21.1-17.4 70.6-44.5 123.9-86.6 170.5-18.4 20.4-39.5 38.1-67.2 56.7l-17.2 11.6-4.8-2.8c-17.3-10.1-43.5-29.8-62.5-47.1-33.8-30.8-62.5-71.7-81.6-116.4-9.5-22.1-19.1-52.5-24.7-78-1.4-6.3-2.7-12.5-3-13.7-.4-1.8.6-2.9 5.3-6.2 13.8-9.3 24.2-24.4 28.3-41.1 4.1-16.1 1-35.8-7.8-50.9C96 102.6 82.3 91 69.1 86l-6-2.2-.3-19.2c-.2-10.5-.2-19.4-.1-19.7.2-.4 4.9.2 10.5 1.2 5.7 1 18.2 3 27.8 4.4z"/></svg>